G04*
G04 #@! TF.GenerationSoftware,Altium Limited,Altium Designer,19.1.6 (110)*
G04*
G04 Layer_Physical_Order=1*
G04 Layer_Color=255*
%FSLAX25Y25*%
%MOIN*%
G70*
G01*
G75*
%ADD13C,0.01000*%
%ADD16R,0.04724X0.04724*%
%ADD17R,0.06299X0.05906*%
%ADD19R,0.04528X0.06693*%
%ADD20R,0.03759X0.05339*%
%ADD24R,0.08661X0.04331*%
%ADD25R,0.03740X0.06299*%
%ADD26R,0.06299X0.03740*%
%ADD29R,0.03968X0.04969*%
%ADD30R,0.05339X0.03759*%
%ADD32R,0.04969X0.03968*%
%ADD35R,0.03150X0.03150*%
G04:AMPARAMS|DCode=36|XSize=52.69mil|YSize=22.75mil|CornerRadius=11.38mil|HoleSize=0mil|Usage=FLASHONLY|Rotation=0.000|XOffset=0mil|YOffset=0mil|HoleType=Round|Shape=RoundedRectangle|*
%AMROUNDEDRECTD36*
21,1,0.05269,0.00000,0,0,0.0*
21,1,0.02993,0.02275,0,0,0.0*
1,1,0.02275,0.01497,0.00000*
1,1,0.02275,-0.01497,0.00000*
1,1,0.02275,-0.01497,0.00000*
1,1,0.02275,0.01497,0.00000*
%
%ADD36ROUNDEDRECTD36*%
%ADD37R,0.05269X0.02275*%
%ADD45O,0.09843X0.02756*%
%ADD46O,0.05906X0.01772*%
%ADD47R,0.02756X0.05118*%
%ADD48R,0.05906X0.03937*%
%ADD49R,0.03937X0.05906*%
G04:AMPARAMS|DCode=50|XSize=124.02mil|YSize=57.09mil|CornerRadius=2mil|HoleSize=0mil|Usage=FLASHONLY|Rotation=180.000|XOffset=0mil|YOffset=0mil|HoleType=Round|Shape=RoundedRectangle|*
%AMROUNDEDRECTD50*
21,1,0.12402,0.05309,0,0,180.0*
21,1,0.12002,0.05709,0,0,180.0*
1,1,0.00400,-0.06001,0.02655*
1,1,0.00400,0.06001,0.02655*
1,1,0.00400,0.06001,-0.02655*
1,1,0.00400,-0.06001,-0.02655*
%
%ADD50ROUNDEDRECTD50*%
G04:AMPARAMS|DCode=51|XSize=35.43mil|YSize=57.09mil|CornerRadius=1.95mil|HoleSize=0mil|Usage=FLASHONLY|Rotation=180.000|XOffset=0mil|YOffset=0mil|HoleType=Round|Shape=RoundedRectangle|*
%AMROUNDEDRECTD51*
21,1,0.03543,0.05319,0,0,180.0*
21,1,0.03154,0.05709,0,0,180.0*
1,1,0.00390,-0.01577,0.02659*
1,1,0.00390,0.01577,0.02659*
1,1,0.00390,0.01577,-0.02659*
1,1,0.00390,-0.01577,-0.02659*
%
%ADD51ROUNDEDRECTD51*%
%ADD52R,0.05906X0.09055*%
%ADD53R,0.04134X0.05315*%
%ADD54R,0.04921X0.06102*%
%ADD55R,0.01575X0.05315*%
%ADD56O,0.03937X0.05906*%
%ADD57C,0.05906*%
%ADD58C,0.06102*%
%ADD59R,0.06102X0.06102*%
%ADD60R,0.06102X0.06102*%
%ADD61C,0.05709*%
%ADD62C,0.02756*%
%ADD63C,0.12992*%
D13*
X429410Y317590D02*
X460815D01*
X393000Y348500D02*
Y361000D01*
X388500Y365500D02*
X393000Y361000D01*
Y344500D02*
Y348500D01*
X493999Y341736D02*
X498736D01*
X363971Y349529D02*
Y351500D01*
X398610Y274500D02*
X473791D01*
X380000D02*
X398610D01*
X378000Y319264D02*
X379978Y321242D01*
X378000Y276500D02*
X380000Y274500D01*
X473791D02*
X478000Y278709D01*
X398610Y274500D02*
Y278221D01*
X361500Y367000D02*
X372500D01*
X331126Y333374D02*
X332125Y334373D01*
X347000Y271500D02*
X368000D01*
X342500Y276000D02*
X347000Y271500D01*
X342500Y276000D02*
Y295500D01*
X368000Y271500D02*
X370646Y274146D01*
X358890Y276500D02*
X362500D01*
X358390Y277000D02*
X358890Y276500D01*
X350945Y276555D02*
X351000Y276500D01*
X350445Y275945D02*
X351000Y276500D01*
Y307500D02*
Y321343D01*
X470783Y310717D02*
X473047D01*
X470783D02*
X472500Y309000D01*
X473047Y310717D02*
X475500Y308264D01*
X467500Y323554D02*
X472446Y328500D01*
X467500Y313000D02*
Y323554D01*
X478054Y333554D02*
X482000Y337500D01*
X478054Y331000D02*
Y333554D01*
X351212Y327000D02*
X376500D01*
X354500Y329000D02*
X357000Y331500D01*
X335500Y329000D02*
X354500D01*
X347652Y323440D02*
X351212Y327000D01*
X357000Y331500D02*
Y344500D01*
X353805Y347695D02*
X357000Y344500D01*
X347652Y304690D02*
Y323440D01*
Y304690D02*
X351341Y301000D01*
X357000D01*
X379892Y332500D02*
X379978Y332415D01*
Y321242D02*
Y332415D01*
X344746Y349065D02*
X353626D01*
X349946Y320289D02*
X351000Y321343D01*
X335500Y306500D02*
Y311000D01*
X351000Y304000D02*
Y307500D01*
X358500Y303000D02*
X361750Y299750D01*
X352000Y303000D02*
X358500D01*
X351000Y304000D02*
X352000Y303000D01*
X397075Y327000D02*
X398610Y325465D01*
X357000Y301000D02*
X358086Y299914D01*
X485500Y333000D02*
X486465Y332035D01*
X366500Y332776D02*
X367000Y333276D01*
X351126Y341374D02*
X352126Y340374D01*
X369475Y320422D02*
X370500Y319397D01*
X369265Y307000D02*
X370500Y308236D01*
X336500Y318038D02*
X337500Y317038D01*
X336500Y318038D02*
Y320038D01*
X337500Y315000D02*
Y317038D01*
X362000Y358000D02*
X370500D01*
X359000Y355000D02*
X362000Y358000D01*
X359000Y348165D02*
Y355000D01*
X373500Y361000D02*
X375000D01*
X370500Y358000D02*
X373500Y361000D01*
X378000Y276500D02*
Y319264D01*
X333000Y287657D02*
X334437Y289094D01*
X333000Y278799D02*
Y287657D01*
X330500Y276299D02*
X333000Y278799D01*
X331500Y325000D02*
X335500Y329000D01*
X366500Y330000D02*
Y332776D01*
X329000Y294531D02*
X334437Y289094D01*
X326000Y290094D02*
X327000Y289094D01*
X322500Y314000D02*
X326000Y310500D01*
Y290094D02*
Y310500D01*
X324346Y342104D02*
X326337Y344094D01*
X324346Y315654D02*
Y342104D01*
X326337Y344094D02*
X328654D01*
X322500Y314000D02*
Y343500D01*
X324346Y315654D02*
X329000Y311000D01*
Y294531D02*
Y311000D01*
X361750Y282500D02*
Y299750D01*
Y282500D02*
X367750Y276500D01*
X349000Y282500D02*
X350500D01*
X344500Y287000D02*
X349000Y282500D01*
X351354D02*
X351500Y282354D01*
Y277000D02*
Y282354D01*
X331500Y303500D02*
X334000Y301000D01*
X331500Y303500D02*
Y312000D01*
X329500Y314000D02*
X331500Y312000D01*
X329500Y314000D02*
Y330500D01*
X334000Y301000D02*
X337000D01*
X342500Y295500D01*
X344500Y287000D02*
Y297500D01*
X335500Y306500D02*
X344500Y297500D01*
X331500Y315000D02*
X335500Y311000D01*
X351354Y282500D02*
X361750D01*
X370646Y274146D02*
Y281500D01*
X367750Y276500D02*
Y277250D01*
X358086Y295688D02*
Y299914D01*
X354898Y292500D02*
X358086Y295688D01*
X349607Y297393D02*
X351393D01*
X342108Y304892D02*
Y321895D01*
Y304892D02*
X349607Y297393D01*
X378000Y272000D02*
X477500D01*
X373500Y276500D02*
X378000Y272000D01*
X477500D02*
X482000Y276500D01*
X322500Y343500D02*
X325654Y346654D01*
X328654D01*
X342500Y365500D02*
X343290Y364710D01*
Y362210D02*
Y364710D01*
X330650Y349569D02*
X343290Y362210D01*
X350000Y365500D02*
X351750Y363750D01*
X344500Y356500D02*
X351750Y363750D01*
X340854Y356500D02*
X344500D01*
X334126Y349772D02*
X340854Y356500D01*
X334126Y344626D02*
Y349772D01*
X362500Y365500D02*
Y366000D01*
Y365000D02*
Y365500D01*
X361500Y367000D02*
X362500Y366000D01*
X352000Y354500D02*
X362500Y365000D01*
X341116Y354500D02*
X352000D01*
X370646Y297500D02*
X371000Y297854D01*
Y301000D01*
X331126Y332126D02*
Y333374D01*
X329500Y330500D02*
X331126Y332126D01*
X330293Y349213D02*
X330650Y349569D01*
X328654Y349213D02*
X330293D01*
X336626Y350010D02*
X341116Y354500D01*
X339626Y350181D02*
X341945Y352500D01*
X356000D01*
X357000Y347500D02*
Y351500D01*
X356000Y352500D02*
X357000Y351500D01*
X359500Y337035D02*
Y345000D01*
X357000Y347500D02*
X359500Y345000D01*
X353805Y347695D02*
X354555Y348445D01*
X332125Y334373D02*
X332132Y339393D01*
X336626Y343874D01*
X338126Y340504D02*
X341569Y343947D01*
X338126Y333874D02*
Y340504D01*
X344626Y334437D02*
Y341508D01*
X344598Y341535D02*
X344626Y341508D01*
X344598Y341535D02*
X351732D01*
X331500Y315000D02*
Y325000D01*
X359500Y337035D02*
X362760Y333776D01*
X352126Y338374D02*
Y340374D01*
X351732Y341535D02*
X352126Y341929D01*
X359000Y348165D02*
X362760Y344406D01*
X364735Y307500D02*
Y307501D01*
X363768Y308468D02*
X364500Y309200D01*
X363736Y306999D02*
Y307500D01*
X364735D02*
X364736D01*
X363736D02*
X364735D01*
X357054D02*
X363736D01*
X356264Y320500D02*
X364446D01*
X370500Y308236D02*
Y314000D01*
Y319397D01*
X364500Y309200D02*
Y320030D01*
X364089Y308146D02*
X364735Y307501D01*
X363986Y306750D02*
X364624Y306111D01*
X357054Y306446D02*
X357107Y306500D01*
X341500Y307288D02*
X341607Y307395D01*
X357054Y306446D02*
Y307500D01*
X370646Y282500D02*
Y287500D01*
X367102Y291500D02*
X370646D01*
X364624Y293978D02*
X367102Y291500D01*
X364624Y293978D02*
Y306111D01*
X364736Y307500D02*
X364986Y307250D01*
X351354Y292500D02*
X354898D01*
X351354Y287500D02*
Y292500D01*
X341569Y343947D02*
X344451D01*
X340885Y346654D02*
X344598D01*
X339626Y347913D02*
X340885Y346654D01*
X369265Y350500D02*
X373500D01*
X368265Y351500D02*
X369265Y350500D01*
X372922Y353906D02*
X374016Y355000D01*
X374969D01*
X373500Y350500D02*
Y353532D01*
X374969Y355000D01*
X375000D01*
X366500Y347000D02*
X374446D01*
X363971Y349529D02*
X366500Y347000D01*
X478054Y321000D02*
Y331000D01*
X366500Y343224D02*
Y347000D01*
X430850Y309717D02*
X460815D01*
X370595Y345094D02*
X375000D01*
X378405Y348500D01*
X386000D01*
X387590Y354036D02*
X388054Y354500D01*
X387590Y348500D02*
Y354036D01*
X374446Y347000D02*
X381946Y354500D01*
X478554Y320500D02*
X479934Y319120D01*
X478054Y321000D02*
X478554Y320500D01*
X479934Y315137D02*
X484571Y310500D01*
X479934Y315137D02*
Y319120D01*
X517500Y328000D02*
X524500D01*
X511973D02*
X517500D01*
X517421Y327921D02*
X517500Y328000D01*
X517421Y317567D02*
Y327921D01*
X515854Y316000D02*
X517421Y317567D01*
X484571Y310500D02*
X489504D01*
X481633D02*
X485500Y306633D01*
X481067Y310500D02*
X481633D01*
X478000Y278709D02*
Y291500D01*
X482000Y276500D02*
Y291000D01*
X497646Y316000D02*
Y318146D01*
X490453Y316000D02*
X496791D01*
X495100Y288061D02*
Y293600D01*
X496500Y295000D01*
Y300500D01*
X499333Y303333D01*
X495039Y288000D02*
X495100Y288061D01*
X497598Y288000D02*
Y292862D01*
X500446Y295710D01*
X499333Y303333D02*
Y311167D01*
X520564Y301500D02*
X524064Y305000D01*
X505086Y301500D02*
X520564D01*
X503000Y303586D02*
X505086Y301500D01*
X511945Y311500D02*
X515854Y315409D01*
X505086Y311500D02*
X511945D01*
X503000Y309414D02*
X505086Y311500D01*
X503000Y303586D02*
Y309414D01*
X524064Y305000D02*
X524500D01*
X519000Y308000D02*
X524500Y313500D01*
X507500Y308000D02*
X519000D01*
X524500Y318000D02*
X530000Y323500D01*
X524500Y313500D02*
Y318000D01*
X515854Y315409D02*
Y316000D01*
X496791Y313709D02*
X499333Y311167D01*
X496791Y313709D02*
Y316000D01*
X493500Y296500D02*
Y306000D01*
X490750Y293750D02*
X493500Y296500D01*
X500500Y321000D02*
X508138D01*
X497646Y318146D02*
X500500Y321000D01*
X503854Y316500D02*
X506500D01*
X503354Y316000D02*
X503854Y316500D01*
X506500D02*
X509646D01*
X510146Y316000D01*
X508138Y321000D02*
X510898Y323760D01*
X485004Y322039D02*
X486965Y324000D01*
X485004Y316457D02*
Y322039D01*
X484547Y316000D02*
X485004Y316457D01*
X508233Y324260D02*
X511973Y328000D01*
X508525Y329000D02*
X509000D01*
X507769Y328244D02*
X508525Y329000D01*
X504350Y328244D02*
X507769D01*
X504106Y328000D02*
X504350Y328244D01*
X504106Y324260D02*
X508233D01*
X507736Y334500D02*
X510996Y331240D01*
X497000Y334500D02*
X507736D01*
X510996Y331240D02*
X512395D01*
X489504Y310500D02*
X491000Y309004D01*
Y297500D02*
Y309004D01*
X489500Y296000D02*
X491000Y297500D01*
X484750Y293750D02*
X490750D01*
X506554Y295710D02*
Y296500D01*
X503373Y292530D02*
X506554Y295710D01*
X502246Y292530D02*
X503373D01*
X500445Y290729D02*
X502246Y292530D01*
X500445Y288287D02*
Y290729D01*
X500157Y288000D02*
X500445Y288287D01*
X500446Y295710D02*
Y296500D01*
X505276Y288000D02*
X510000D01*
X482000Y291000D02*
X484750Y293750D01*
X478000Y291500D02*
X482500Y296000D01*
X489500D01*
X505217Y288559D02*
X505276Y288500D01*
X458650Y286094D02*
X460815D01*
X474000Y347054D02*
Y351000D01*
X366731Y338500D02*
X377961D01*
X366500Y338731D02*
X366731Y338500D01*
X489764Y337500D02*
X493999Y341736D01*
X482000Y337500D02*
X489764D01*
X495036Y332535D02*
X497000Y334500D01*
X462094Y278500D02*
X465594Y282000D01*
X468000D01*
X471500D01*
X476446Y300446D02*
X485500D01*
X462339Y286339D02*
X476446Y300446D01*
X460815Y286339D02*
X462339D01*
X472165Y320218D02*
X478000Y314383D01*
Y305000D02*
Y314383D01*
X466968Y293969D02*
X478000Y305000D01*
X460815Y293969D02*
X466968D01*
X469783Y310717D02*
X470783D01*
X469689D02*
X469783D01*
X460815Y301842D02*
X469689Y310717D01*
X467500Y313000D02*
X469783Y310717D01*
X475500Y306689D02*
Y308264D01*
X530000Y323500D02*
Y334866D01*
X526055Y338811D02*
X530000Y334866D01*
X526055Y338811D02*
Y339894D01*
X524500Y305000D02*
X524551Y305051D01*
X461594Y279000D02*
X462094Y278500D01*
X460815Y278221D02*
X461594Y279000D01*
X523500Y294000D02*
X524500Y295000D01*
X497420Y326551D02*
X502109Y331240D01*
X496996Y326551D02*
X497420D01*
X513895Y331740D02*
X514894D01*
X510898Y323760D02*
X512395D01*
X495035Y324000D02*
Y324590D01*
X496996Y326551D01*
X502109Y331240D02*
X503606D01*
X483000Y333000D02*
X485500D01*
X486465Y332035D02*
X486965Y332535D01*
X344451Y343947D02*
X344598Y344094D01*
X336626Y343874D02*
Y350010D01*
X344598Y349213D02*
X344746Y349065D01*
X329626Y341374D02*
X330874D01*
X339626Y347913D02*
Y350181D01*
X330874Y341374D02*
X334126Y344626D01*
X362500Y344146D02*
X362760Y344406D01*
X484500Y349054D02*
Y359000D01*
X366500Y333776D02*
X367000Y333276D01*
X394595Y286094D02*
X398610D01*
X383500Y279000D02*
X384500Y280000D01*
X388500D02*
X394595Y286094D01*
X384500Y280000D02*
X388500D01*
X394969Y293969D02*
X398610D01*
X383500Y289000D02*
X384500Y290000D01*
X391000D02*
X394969Y293969D01*
X384500Y290000D02*
X391000D01*
X394342Y301842D02*
X398610D01*
X383500Y299000D02*
X384500Y300000D01*
X392500D02*
X394342Y301842D01*
X384500Y300000D02*
X392500D01*
X384216Y309717D02*
X398610D01*
X383500Y309000D02*
X384216Y309717D01*
X370595Y343579D02*
Y345094D01*
X370240Y343224D02*
X370595Y343579D01*
X370465Y334000D02*
X373500D01*
X370240Y333776D02*
X370465Y334000D01*
X387590Y348500D02*
X390000Y346090D01*
Y342500D02*
Y346090D01*
Y342500D02*
X393000Y339500D01*
Y344500D02*
X395000Y342500D01*
X396445Y317590D02*
X398610D01*
X386054Y321000D02*
X393035D01*
X396445Y317590D01*
X401066Y339500D02*
X430850Y309717D01*
X393000Y339500D02*
X401066D01*
X404500Y342500D02*
X429410Y317590D01*
X395000Y342500D02*
X404500D01*
X383000Y327000D02*
X397075D01*
X397772Y332500D02*
X398610Y333339D01*
X467500Y328000D02*
Y335736D01*
X464965Y325465D02*
X467500Y328000D01*
Y335736D02*
X473210Y341446D01*
X474000D02*
X484500D01*
X474000Y347054D02*
X474500Y347554D01*
X386054Y348500D02*
X387590D01*
X377961Y338500D02*
X379892Y336569D01*
Y332500D02*
Y336569D01*
X386054Y321000D02*
Y322000D01*
X369174Y321880D02*
X370554Y320500D01*
X494500Y352000D02*
Y359000D01*
Y347265D02*
Y352000D01*
X495035Y324000D02*
X496000D01*
X460815Y286094D02*
Y286339D01*
X486965Y332535D02*
X487036Y332606D01*
X386500Y338500D02*
Y343000D01*
X386000Y343500D02*
X386500Y343000D01*
X380471Y338819D02*
Y343500D01*
Y338819D02*
X386000Y333290D01*
X498736Y341736D02*
X501248Y344248D01*
X513728D01*
X473500Y359000D02*
X474500D01*
X464646Y350146D02*
X473500Y359000D01*
X464646Y335004D02*
Y350146D01*
X508500Y364500D02*
X516606D01*
X517000Y364106D01*
X369475Y320422D02*
X369554Y320500D01*
X507839Y340000D02*
X507945Y339894D01*
X504000Y340000D02*
X507839D01*
X366500Y338731D02*
Y343224D01*
X370240D02*
Y344406D01*
X381946Y354500D02*
Y365500D01*
X386000Y332500D02*
X397772D01*
X386000D02*
Y333290D01*
X462980Y333339D02*
X464646Y335004D01*
X460815Y333339D02*
X462980D01*
X460815Y325465D02*
X464965D01*
X517000Y339894D02*
Y340976D01*
X513728Y344248D02*
X517000Y340976D01*
D16*
X326563Y289094D02*
D03*
X334437D02*
D03*
D17*
X330500Y276299D02*
D03*
D19*
X495000Y306500D02*
D03*
X507402D02*
D03*
D20*
X500446Y296500D02*
D03*
X506554D02*
D03*
X350946Y307500D02*
D03*
X357054D02*
D03*
X364446Y320500D02*
D03*
X370554D02*
D03*
X335946D02*
D03*
X342054D02*
D03*
X335446Y307500D02*
D03*
X341554D02*
D03*
X381946Y365500D02*
D03*
X388054D02*
D03*
X381946Y354500D02*
D03*
X388054D02*
D03*
X379892Y332500D02*
D03*
X386000D02*
D03*
X379946Y321000D02*
D03*
X386054D02*
D03*
X478554Y320500D02*
D03*
X472446D02*
D03*
X471946Y331000D02*
D03*
X478054D02*
D03*
D24*
X459724Y333929D02*
D03*
Y326055D02*
D03*
Y318181D02*
D03*
Y310307D02*
D03*
Y302433D02*
D03*
Y294559D02*
D03*
Y286685D02*
D03*
Y278811D02*
D03*
X397520D02*
D03*
Y286685D02*
D03*
Y294559D02*
D03*
Y302433D02*
D03*
Y310307D02*
D03*
Y318181D02*
D03*
Y326055D02*
D03*
Y333929D02*
D03*
D25*
X351055Y276500D02*
D03*
X357945D02*
D03*
D26*
X352126Y348819D02*
D03*
Y341929D02*
D03*
D29*
X368265Y351500D02*
D03*
X362736D02*
D03*
X356264Y320500D02*
D03*
X350735D02*
D03*
X370265Y307500D02*
D03*
X364736D02*
D03*
X386000Y343500D02*
D03*
X380471D02*
D03*
D30*
X485500Y306554D02*
D03*
Y300446D02*
D03*
X474000Y340946D02*
D03*
Y347054D02*
D03*
X484500Y340946D02*
D03*
Y347054D02*
D03*
D32*
X494500Y346764D02*
D03*
Y341235D02*
D03*
D35*
X484547Y315500D02*
D03*
X490453D02*
D03*
D36*
X512894Y331740D02*
D03*
Y324260D02*
D03*
X504106D02*
D03*
Y328000D02*
D03*
D37*
Y331740D02*
D03*
D45*
X351354Y297500D02*
D03*
Y292500D02*
D03*
Y287500D02*
D03*
Y282500D02*
D03*
X370646Y297500D02*
D03*
Y292500D02*
D03*
Y287500D02*
D03*
Y282500D02*
D03*
D46*
X328654Y349213D02*
D03*
Y346654D02*
D03*
Y344094D02*
D03*
Y341535D02*
D03*
X344598Y349213D02*
D03*
Y346654D02*
D03*
Y344094D02*
D03*
Y341535D02*
D03*
D47*
X362760Y333776D02*
D03*
X366500D02*
D03*
X370240D02*
D03*
Y343224D02*
D03*
X366500D02*
D03*
X362760D02*
D03*
D48*
X375000Y355000D02*
D03*
Y361000D02*
D03*
Y367000D02*
D03*
D49*
X332126Y333874D02*
D03*
X338126D02*
D03*
X344126D02*
D03*
D50*
X517000Y364106D02*
D03*
D51*
X526055Y339894D02*
D03*
X517000D02*
D03*
X507945D02*
D03*
D52*
X473000Y309689D02*
D03*
Y283311D02*
D03*
D53*
X515854Y316000D02*
D03*
X510146D02*
D03*
X496791D02*
D03*
X502500D02*
D03*
D54*
X486965Y324000D02*
D03*
X495035D02*
D03*
X486965Y332535D02*
D03*
X495036D02*
D03*
D55*
X495039Y288000D02*
D03*
X497598D02*
D03*
X500157D02*
D03*
X502716D02*
D03*
X505276D02*
D03*
D56*
X513937Y277370D02*
D03*
X486378D02*
D03*
D57*
X362500Y365500D02*
D03*
D58*
X352500D02*
D03*
X524500Y328000D02*
D03*
Y305000D02*
D03*
X384500Y290000D02*
D03*
Y300000D02*
D03*
Y310000D02*
D03*
X494500Y359000D02*
D03*
X484500D02*
D03*
D59*
X342500Y365500D02*
D03*
X474500Y359000D02*
D03*
D60*
X524500Y318000D02*
D03*
Y295000D02*
D03*
X384500Y280000D02*
D03*
D61*
X510000Y288000D02*
D03*
X490315D02*
D03*
D62*
X393000Y348500D02*
D03*
X362500Y276500D02*
D03*
X376500Y327000D02*
D03*
X337500Y315000D02*
D03*
X366500Y330000D02*
D03*
X367750Y276500D02*
D03*
X373500D02*
D03*
X371000Y301000D02*
D03*
X352126Y338374D02*
D03*
X370500Y314000D02*
D03*
X481067Y310500D02*
D03*
X506500Y316500D02*
D03*
X509000Y329000D02*
D03*
X474000Y351000D02*
D03*
X468000Y282000D02*
D03*
X483000Y333000D02*
D03*
X373500Y350500D02*
D03*
Y334000D02*
D03*
X383000Y327000D02*
D03*
X386500Y338500D02*
D03*
X494500Y352000D02*
D03*
X508500Y364500D02*
D03*
X504000Y340000D02*
D03*
D63*
X525500Y279500D02*
D03*
X328000Y362500D02*
D03*
M02*
