M48
;Layer_Color=9474304
;FILE_FORMAT=2:5
INCH,LZ
;TYPE=PLATED
T1F00S00C0.01200
T3F00S00C0.02756
T4F00S00C0.11811
%
T01
X0481067Y03105
X0468Y0282
X03735Y02765
X036775
X03625
X0371Y0301
X03705Y0314
X03765Y0327
X0383
X03865Y03385
X0393Y03485
X03735Y03505
Y0334
X03665Y033
X0352126Y0338374
X03375Y0315
X0483Y0333
X0474Y0351
X04945Y0352
X0504Y034
X0509Y0329
X05065Y03165
X05085Y03645
T03
X0490315Y0288
X051
X05245Y0295
Y0305
X03845Y03
Y029
Y028
Y031
X03625Y03655
X03525
X03425
X04745Y0359
X04845
X04945
X05245Y0328
Y0318
T04
X05255Y02795
X0328Y03625
M30
