G04*
G04 #@! TF.GenerationSoftware,Altium Limited,Altium Designer,19.1.6 (110)*
G04*
G04 Layer_Color=8388736*
%FSLAX25Y25*%
%MOIN*%
G70*
G01*
G75*
%ADD15O,0.10642X0.03556*%
%ADD16R,0.04724X0.04724*%
%ADD17R,0.06299X0.05906*%
%ADD18O,0.06706X0.02572*%
%ADD19R,0.04528X0.06693*%
%ADD20R,0.03759X0.05339*%
%ADD21R,0.03556X0.05918*%
%ADD22R,0.06706X0.04737*%
%ADD23R,0.04737X0.06706*%
%ADD24R,0.08661X0.04331*%
%ADD25R,0.03740X0.06299*%
%ADD26R,0.06299X0.03740*%
G04:AMPARAMS|DCode=27|XSize=132.02mil|YSize=65.09mil|CornerRadius=6mil|HoleSize=0mil|Usage=FLASHONLY|Rotation=180.000|XOffset=0mil|YOffset=0mil|HoleType=Round|Shape=RoundedRectangle|*
%AMROUNDEDRECTD27*
21,1,0.13202,0.05309,0,0,180.0*
21,1,0.12002,0.06509,0,0,180.0*
1,1,0.01200,-0.06001,0.02655*
1,1,0.01200,0.06001,0.02655*
1,1,0.01200,0.06001,-0.02655*
1,1,0.01200,-0.06001,-0.02655*
%
%ADD27ROUNDEDRECTD27*%
G04:AMPARAMS|DCode=28|XSize=43.43mil|YSize=65.09mil|CornerRadius=5.95mil|HoleSize=0mil|Usage=FLASHONLY|Rotation=180.000|XOffset=0mil|YOffset=0mil|HoleType=Round|Shape=RoundedRectangle|*
%AMROUNDEDRECTD28*
21,1,0.04343,0.05319,0,0,180.0*
21,1,0.03154,0.06509,0,0,180.0*
1,1,0.01190,-0.01577,0.02659*
1,1,0.01190,0.01577,0.02659*
1,1,0.01190,0.01577,-0.02659*
1,1,0.01190,-0.01577,-0.02659*
%
%ADD28ROUNDEDRECTD28*%
%ADD29R,0.03968X0.04969*%
%ADD30R,0.05339X0.03759*%
%ADD31R,0.06706X0.09855*%
%ADD32R,0.04969X0.03968*%
%ADD33R,0.04934X0.06115*%
%ADD34R,0.05721X0.06902*%
%ADD35R,0.03150X0.03150*%
G04:AMPARAMS|DCode=36|XSize=52.69mil|YSize=22.75mil|CornerRadius=11.38mil|HoleSize=0mil|Usage=FLASHONLY|Rotation=0.000|XOffset=0mil|YOffset=0mil|HoleType=Round|Shape=RoundedRectangle|*
%AMROUNDEDRECTD36*
21,1,0.05269,0.00000,0,0,0.0*
21,1,0.02993,0.02275,0,0,0.0*
1,1,0.02275,0.01497,0.00000*
1,1,0.02275,-0.01497,0.00000*
1,1,0.02275,-0.01497,0.00000*
1,1,0.02275,0.01497,0.00000*
%
%ADD36ROUNDEDRECTD36*%
%ADD37R,0.05269X0.02275*%
%ADD38R,0.02375X0.06115*%
%ADD39O,0.04737X0.06706*%
%ADD40C,0.06706*%
%ADD41C,0.06902*%
%ADD42R,0.06902X0.06902*%
%ADD43R,0.06902X0.06902*%
%ADD44C,0.06509*%
D15*
X351354Y297500D02*
D03*
Y292500D02*
D03*
Y287500D02*
D03*
Y282500D02*
D03*
X370646Y297500D02*
D03*
Y292500D02*
D03*
Y287500D02*
D03*
Y282500D02*
D03*
D16*
X326563Y289094D02*
D03*
X334437D02*
D03*
D17*
X330500Y276299D02*
D03*
D18*
X328654Y349213D02*
D03*
Y346654D02*
D03*
Y344094D02*
D03*
Y341535D02*
D03*
X344598Y349213D02*
D03*
Y346654D02*
D03*
Y344094D02*
D03*
Y341535D02*
D03*
D19*
X495000Y306500D02*
D03*
X507402D02*
D03*
D20*
X500446Y296500D02*
D03*
X506554D02*
D03*
X350946Y307500D02*
D03*
X357054D02*
D03*
X364446Y320500D02*
D03*
X370554D02*
D03*
X335946D02*
D03*
X342054D02*
D03*
X335446Y307500D02*
D03*
X341554D02*
D03*
X381946Y365500D02*
D03*
X388054D02*
D03*
X381946Y354500D02*
D03*
X388054D02*
D03*
X379892Y332500D02*
D03*
X386000D02*
D03*
X379946Y321000D02*
D03*
X386054D02*
D03*
X478554Y320500D02*
D03*
X472446D02*
D03*
X471946Y331000D02*
D03*
X478054D02*
D03*
D21*
X362760Y333776D02*
D03*
X366500D02*
D03*
X370240D02*
D03*
Y343224D02*
D03*
X366500D02*
D03*
X362760D02*
D03*
D22*
X375000Y355000D02*
D03*
Y361000D02*
D03*
Y367000D02*
D03*
D23*
X332126Y333874D02*
D03*
X338126D02*
D03*
X344126D02*
D03*
D24*
X459724Y333929D02*
D03*
Y326055D02*
D03*
Y318181D02*
D03*
Y310307D02*
D03*
Y302433D02*
D03*
Y294559D02*
D03*
Y286685D02*
D03*
Y278811D02*
D03*
X397520D02*
D03*
Y286685D02*
D03*
Y294559D02*
D03*
Y302433D02*
D03*
Y310307D02*
D03*
Y318181D02*
D03*
Y326055D02*
D03*
Y333929D02*
D03*
D25*
X351055Y276500D02*
D03*
X357945D02*
D03*
D26*
X352126Y348819D02*
D03*
Y341929D02*
D03*
D27*
X517000Y364106D02*
D03*
D28*
X526055Y339894D02*
D03*
X517000D02*
D03*
X507945D02*
D03*
D29*
X368265Y351500D02*
D03*
X362736D02*
D03*
X356264Y320500D02*
D03*
X350735D02*
D03*
X370265Y307500D02*
D03*
X364736D02*
D03*
X386000Y343500D02*
D03*
X380471D02*
D03*
D30*
X485500Y306554D02*
D03*
Y300446D02*
D03*
X474000Y340946D02*
D03*
Y347054D02*
D03*
X484500Y340946D02*
D03*
Y347054D02*
D03*
D31*
X473000Y309689D02*
D03*
Y283311D02*
D03*
D32*
X494500Y346764D02*
D03*
Y341235D02*
D03*
D33*
X515854Y316000D02*
D03*
X510146D02*
D03*
X496791D02*
D03*
X502500D02*
D03*
D34*
X486965Y324000D02*
D03*
X495035D02*
D03*
X486965Y332535D02*
D03*
X495036D02*
D03*
D35*
X484547Y315500D02*
D03*
X490453D02*
D03*
D36*
X512894Y331740D02*
D03*
Y324260D02*
D03*
X504106D02*
D03*
Y328000D02*
D03*
D37*
Y331740D02*
D03*
D38*
X495039Y288000D02*
D03*
X497598D02*
D03*
X500157D02*
D03*
X502716D02*
D03*
X505276D02*
D03*
D39*
X513937Y277370D02*
D03*
X486378D02*
D03*
D40*
X362500Y365500D02*
D03*
D41*
X352500D02*
D03*
X524500Y328000D02*
D03*
Y305000D02*
D03*
X384500Y290000D02*
D03*
Y300000D02*
D03*
Y310000D02*
D03*
X494500Y359000D02*
D03*
X484500D02*
D03*
D42*
X342500Y365500D02*
D03*
X474500Y359000D02*
D03*
D43*
X524500Y318000D02*
D03*
Y295000D02*
D03*
X384500Y280000D02*
D03*
D44*
X510000Y288000D02*
D03*
X490315D02*
D03*
M02*
